<svg width="502" height="393" viewBox="0 0 502 393" fill="none" xmlns="http://www.w3.org/2000/svg">
<path opacity="0.1" d="M417.855 157.153C414.182 160.279 408.818 160.279 405.145 157.153C376.004 132.349 328 87.2879 328 52C328 14 349.5 2 368.5 2C385.5 2 411.5 14.5 411.5 35C411.5 14.5 437.5 2 454.5 2C473.5 2 495 14 495 52C495 87.2879 446.996 132.349 417.855 157.153Z" fill="#EC1E7B"/>
<g clip-path="url(#clip0_171_4822)">
<path d="M421.7 160.2C421.1 160.7 421.6 160.8 421.6 161C422.4 160 421.6 160.2 421.7 160.2Z" fill="#283592"/>
<path d="M430.4 150.4V150.7C430.8 150.2 431.1 149.6 431.4 149C431 149.5 430.7 150 430.4 150.4Z" fill="#283592"/>
<path d="M438.8 141.5C437.5 141.9 435.9 144.9 434.2 146.2L433.8 146.3L433.5 147.4C435.3 145.6 437.4 142.8 438.8 141.5Z" fill="#283592"/>
<path d="M444.3 137.7C443.8 137.8 445.1 136.5 443.2 138.8C443.3 138.7 443.4 138.7 443.4 138.6C443.6 138.4 443.9 138.2 444.3 137.7Z" fill="#283592"/>
<path d="M443.5 138.7C442.6 139.6 444.2 138.2 443.5 138.7V138.7Z" fill="#283592"/>
<path d="M447.3 134.1L446.4 135.6C446.8 135.4 447.8 134.3 447.5 134.8C448.5 133.3 448.1 133.5 447.3 134.1Z" fill="#283592"/>
<path d="M447.9 132.5L447.4 133.2C447.6 133.2 447.7 133 447.9 132.5Z" fill="#283592"/>
<path d="M446.4 134.8L447.4 133.2C447.2 133.3 447 133.2 446.9 133.9C446.9 133.7 446.8 134.1 446.4 134.8Z" fill="#283592"/>
<path d="M445.6 135.5C444.8 136.1 444 137 444.9 135.5C442.8 138.1 443.5 138 445.6 135.5Z" fill="#283592"/>
<path d="M438.7 140.6L437.7 141.4L437.1 142.4C437.4 141.9 438.9 140.7 438.7 140.6Z" fill="#283592"/>
<path d="M454.3 126.1C454.2 125.9 453.6 126.3 453.4 126.3L452.7 127.4C453.3 126.9 454.1 126.1 454.3 126.1Z" fill="#283592"/>
<path d="M453.4 126.3L454.4 124.7C453.3 126 453.2 126.3 453.4 126.3Z" fill="#283592"/>
<path d="M447.5 131.7L445.9 134.4L447.9 131.3L447.5 131.7Z" fill="#283592"/>
<path d="M458.8 120.5L458.4 121.6L459.2 119.7L458.8 120.5Z" fill="#283592"/>
<path d="M461.7 116.7C461.5 117.5 462.7 116.1 462.4 116.9C463.1 115.8 463.6 114.8 464 113.9C463.4 114.7 462.7 115.6 461.7 116.7Z" fill="#283592"/>
<path d="M464.7 112.3C464.4 112.8 464.2 113.3 464 113.8C464.3 113.3 464.5 112.8 464.7 112.3Z" fill="#283592"/>
<path d="M456.5 122.2C456.7 122.1 457 122.1 457.8 121.3L457 121.6C456.8 121.8 456.6 122 456.5 122.2Z" fill="#283592"/>
<path d="M456.9 121.6C457.4 121 457.8 120.5 457.9 120.3C457.8 120.5 457.5 120.9 456.9 121.6Z" fill="#283592"/>
<path d="M456.3 122.4C456.3 122.3 456.4 122.3 456.4 122.3C456.4 122.2 456.3 122.3 456.3 122.4Z" fill="#283592"/>
<path d="M451 128.2C451.5 127.2 452.8 125.3 451.1 126.7C450.8 127.6 451.7 126.7 451 128.2Z" fill="#283592"/>
<path d="M455.4 122.7C455 123.2 454.5 123.7 454.1 124.2C454.2 124.2 454.6 124.1 454.3 124.6C454.6 124 455 123.4 455.4 122.7Z" fill="#283592"/>
<path d="M455.9 121.9L455.4 122.7L455.8 122.2L455.9 121.9Z" fill="#283592"/>
<path d="M462.3 114.8C462.7 114 463.2 113.2 463.8 112.4C463.1 113.3 462.3 114.2 461.6 115.1C461.7 115.2 461.6 115.8 462.3 114.8Z" fill="#283592"/>
<path d="M459.7 118.1C459.7 118 459.8 118 459.8 117.9C459.7 118 459.6 118.1 459.7 118.1Z" fill="#283592"/>
<path d="M469.9 103.8C469.8 103.8 469.8 103.9 469.7 103.9C469.7 103.9 469.7 103.9 469.7 104L469.9 103.8Z" fill="#283592"/>
<path d="M461.5 115.1C460.9 115.7 460.7 116.2 460.5 116.7C460.9 116.2 461.2 115.6 461.7 115C461.7 114.9 461.7 114.9 461.5 115.1Z" fill="#283592"/>
<path d="M466.2 109.8C465.9 110.1 465.5 110.5 465.1 110.9C465.5 110.6 466.2 110 466.2 109.8Z" fill="#283592"/>
<path d="M460.1 117.8C460.1 117.8 460.1 117.9 460 117.9C460.2 117.7 460.2 117.7 460.1 117.8Z" fill="#283592"/>
<path d="M460.1 117.8C460.3 117.4 460.4 117.1 460.6 116.7C460.3 117.1 460.1 117.6 459.9 117.9C459.9 117.9 460 117.8 460.1 117.8Z" fill="#283592"/>
<path d="M469.4 99.6C469.6 99.9 468.7 102 467.2 103.4C466.4 105.1 468.1 104.9 469.7 103.9C469.6 103.8 469.5 103.7 470.4 101.9C469.8 102.3 467.5 105.2 468.2 103.6C469.5 101.3 469.5 101.9 470.4 101C469.4 101.6 471.6 97.8 470.7 97.9L469.7 99.9C469.5 100 469.9 99.2 469.4 99.6Z" fill="#283592"/>
<path d="M467.6 107L467.2 107.7C467.8 107 468.3 106.5 469.2 105.7C469.8 104.5 469.8 104.2 469.8 104L467.5 107.3L467.6 107Z" fill="#283592"/>
<path d="M465 110.6C465 109.8 466 108.1 464.9 108.8C463.5 110.7 464.2 110.4 463.5 111.6C465.8 108.5 463.2 112.7 465 110.6C464.6 111.3 464.2 111.8 463.8 112.3C464.2 111.8 464.7 111.3 465.1 110.8C465.1 110.8 465.1 110.8 465 110.9C464.9 111 464.8 111 464.9 110.9V110.8C465 110.8 465 110.7 465 110.6C465.7 109.7 465.2 110.5 465 110.8V110.9L467.1 107.6C466.6 108.3 466 109.1 465 110.6Z" fill="#283592"/>
<path d="M451.6 124.6C451.7 124.5 451.7 124.6 451.8 124.6C451.9 124.3 451.9 124.2 451.6 124.6Z" fill="#283592"/>
<path d="M452.8 123.5C452.7 123.8 452.7 124 452.1 124.7C451.5 125.2 451.9 124.6 451.8 124.5C451.5 125 450.8 126.2 452.1 125L452.2 124.8C453.3 123.7 455 122.5 454.8 122.7C454.2 122.8 453.8 123 452.8 123.5Z" fill="#283592"/>
<path d="M459 117L460.7 114.3L459.4 115.4L459.6 115.5C458.5 116.9 459 116.7 459 117Z" fill="#283592"/>
<path d="M470.3 103.6L470.4 104.2L470.9 102.3L470.3 103.6Z" fill="#283592"/>
<path d="M472.6 100.1L472.8 100.5L473.2 99.4L472.6 100.1Z" fill="#283592"/>
<path d="M382.5 8.50005L381.6 8.30005C382.1 8.40005 382.4 8.50005 382.5 8.50005Z" fill="#283592"/>
<path d="M388.3 11.2001L388.5 11.1001C388.3 11.0001 388.1 11.0001 388.3 11.2001Z" fill="#283592"/>
<path d="M484.6 7.00009C484.1 6.40009 483.6 5.80009 483.2 5.40009C482.8 5.00009 482.5 4.80009 482.4 5.00009L482.6 5.60009C483.5 6.10009 484.1 6.50009 484.6 7.00009Z" fill="#283592"/>
<path d="M421.1 21.6C421.2 21.5 421.3 21.5 421.5 21.4C421.6 21.1 421.7 20.7 421.8 20.4C421.6 20.8 421.3 21.2 421.1 21.6Z" fill="#283592"/>
<path d="M421.8 23.5C421.3 23.9 420.9 24.3 420.5 24.7C420.8 24.4 421.2 24 421.8 23.5Z" fill="#283592"/>
<path d="M349.6 13.6001L349 14.5001C350.3 13.6001 349.6 13.8001 349.6 13.6001Z" fill="#283592"/>
<path d="M493.8 63C494.4 62 494.9 61.1 495.3 60.4C494.4 61.6 493.6 62.5 493.8 63Z" fill="#283592"/>
<path d="M386.7 5.20011C386.1 5.00011 385.9 5.00011 385.8 5.10011C386.4 5.30011 386.8 5.40011 386.7 5.20011Z" fill="#283592"/>
<path d="M496.5 57.1001C496.4 57.3001 496.3 57.5001 496.2 57.7001C495.9 58.5001 495.6 59.4001 495.2 60.4001C495.8 59.5001 496.4 58.4001 496.5 57.1001Z" fill="#283592"/>
<path d="M374.5 124.7C374.6 124.8 374.6 124.9 374.7 125C374.7 124.9 374.6 124.8 374.5 124.7Z" fill="#283592"/>
<path d="M400.4 154.1C400.1 153.9 399.6 153.5 399.1 153.1C399.3 153.4 399.7 153.7 400.4 154.1Z" fill="#283592"/>
<path d="M481.7 86C481.2 86.8 481.6 86.2 481.7 86V86Z" fill="#283592"/>
<path d="M478 88.8C478.1 88.6 478.1 88.5 478 88.4C478.1 88.5 478 88.7 478 88.8Z" fill="#283592"/>
<path d="M496.7 47.9001C496.7 47.8001 496.7 47.8001 496.7 47.9001C496.6 48.0001 496.6 48.0001 496.7 47.9001Z" fill="#283592"/>
<path d="M480.8 87.1001C481 86.8001 481.3 86.5001 481.5 86.2001C481.4 86.3001 481.2 86.6001 480.8 87.1001Z" fill="#283592"/>
<path d="M481.1 87C480.9 87.3 480.8 87.5 480.7 87.6C480.7 87.8 480.8 87.7 481.1 87Z" fill="#283592"/>
<path d="M482.3 85C482 85.4 481.8 85.8 481.5 86.2C481.6 86.1 481.7 86 481.7 86.1C481.8 85.8 482 85.5 482.3 85Z" fill="#283592"/>
<path d="M334.5 66.4C334.5 66.5 334.5 66.5 334.5 66.6C335 67.4 334.9 67 334.5 66.4Z" fill="#283592"/>
<path d="M458.7 4.30007C460 3.70007 460.7 3.90007 461.7 4.00007L460.7 2.70007C460 3.20007 459.3 3.70007 458.7 4.30007Z" fill="#283592"/>
<path d="M367.6 6.80005L369.7 7.00005C368.5 7.40005 367.4 7.60005 366.9 7.70005C366.4 7.90005 366.5 7.90005 367.4 8.10005C367.4 7.80005 367.9 7.50005 368.7 7.40005C369.5 7.20005 370.4 7.20005 371.4 7.20005C371.9 7.20005 372.4 7.20005 372.9 7.20005C373.4 7.20005 373.8 7.20005 374.2 7.20005C375 7.20005 375.5 7.00005 375.6 6.70005L376.9 7.20005C376.5 7.10005 376.4 7.20005 376.1 7.10005C377.3 7.70005 377.9 7.50005 378.5 7.30005C379.1 7.10005 379.9 7.00005 381.5 7.50005C382.6 8.00005 383.3 8.50005 382.5 8.40005C383.4 8.60005 384.3 8.80005 385.1 9.10005C385.8 9.40005 385.5 9.60005 384.8 9.20005L386.7 10C387.3 10.3 387.9 10.6 388.5 10.9C388.8 10.9 389.3 11.1 389.8 11.2C390.3 11.4 390.8 11.5 391.1 11.7C391.9 12.4 390.6 11.5 390.7 11.8C391.4 12.1 392.1 12.4 392.8 12.8C393.1 13.2 392.8 13.2 392.3 13C391.8 12.8 391 12.4 390.4 11.9C390.9 13.1 391.3 13.2 392.1 13.5C392.5 13.7 392.9 13.9 393.4 14.3C393.9 14.7 394.6 15.2001 395.3 16.1C394.7 15.7001 394.2 15.2 393.6 14.9C393.9 15.6 394.4 16.2 395 16.8C395.3 17.1 395.6 17.5 396 17.8C396.3 18.2 396.6 18.6 397 19.1C396.9 18.8001 396.3 17.7001 395.9 17C395.5 16.2001 395.4 15.7 396.4 16.4C396.9 16.9 397.4 17.6 398.6 18.4C398.4 18.6 398.6 18.9 398.9 19.3C399.2 19.7 399.7 20.3 400.2 20.9L399.6 21.2001C400.2 21.8001 400.6 22 400.9 22.2001C401.2 22.4001 401.4 22.5 401.9 22.8C403 24.4 402.7 25.1 402.6 25.7001C404.1 28.4001 402.2 23.5 404.2 26.5C404.7 27.7001 405.2 28.7001 405.7 29.7001C405.9 30.1 406.1 30.4 406.2 30.8C406.4 31.2 406.6 31.7001 406.8 32.2001C407.3 33.1001 407.6 34.4001 408 35.5C408.3 37.2001 408.2 37.3 408.1 37.1C407.9 36.9 407.7 36.3 407.8 37.1C408.2 37.9 408.5 38.5 408.8 39C408.9 39.7001 408.8 39.8001 408.7 39.9001C409 40.8001 409.1 40.5 409.2 40.3C409.3 40.1 409.4 40 409.8 41.1L409.9 41C410.2 39.7001 410.8 39.1 411.8 37.8C412.3 37.1 412.9 36.3 413.5 35.3C414.1 34.3 414.7 33.2 415.1 32.1C415.8 31.4 415.1 32.8 415.4 32.8C415.8 32.1 416.1 31.5 416.3 31C416.5 30.7001 416.6 30.4 416.7 30.1C416.9 29.6 417.1 29.3 417.2 28.9C417.5 28.2 417.8 27.7001 418.4 26.2001C419 25.6 419.7 25 420.4 24.4C419.6 25 419.5 24.7001 419.7 24.1C419.9 23.4 420.4 22.3 421 21.4C420.4 21.8 419.8 22.1 419.5 22.3C420.2 21.3 420.9 20.4 421.6 19.4C422 19.1 421.9 19.6 421.7 20.2001C421.8 20 421.9 19.8001 422 19.6C423.1 18.9 422.8 19.6 422.5 20.5C422.1 20.7001 421.7 21 421.4 21.2001C421.1 22.1 420.9 23 421.3 23.1C421.4 22.9 421.6 22.5 421.9 22.1C421.8 22.3001 421.8 22.5 421.9 22.5C422 22.5 422.2 22.1 422.4 21.6L423.4 21.5L423.3 21.2001C424.5 20.2001 425.6 19.2 426.8 18.3C427.3 17.6 427.7 17 428.1 16.3C428.6 15.6 429.1 15 429.6 14.2C430.1 13.5 430.8 12.8 431.6 12C432 11.6 432.4 11.2 432.8 10.9C433.2 10.5 433.7 10.2 434.3 9.80005C433.5 10.9 434.5 10.7 434.8 11.2C434.4 11.3 434 11.4 433.6 11.7C433.2 12 432.8 12.3 432.4 12.7C432 13.1 431.5 13.5 431.1 13.9C430.6 14.3 430.2 14.8 429.6 15.2C430.7 14.4 430.7 14.8 430.5 15.1L431.3 14.2L432.2 13.4C432.8 12.9 433.3 12.3 433.9 11.8C434.1 12.3 435 11.6 436.1 11.1C435.5 10.9 436.1 10.3 437.1 9.60005C438.2 9.00005 439.5 8.10005 440.3 7.60005C440.6 7.90005 440.3 8.30005 438.2 9.40005C438.9 9.30005 439.3 9.00005 439.7 8.70005C440.1 8.40005 440.4 8.10005 440.7 7.80005C441 7.50005 441.3 7.20005 441.7 6.90005C442.1 6.60005 442.6 6.40005 443.2 6.30005C442.7 6.50005 442.4 6.60005 442.2 6.80005C443.3 6.00005 446.5 5.10005 445.8 5.60005C445.6 5.70005 445.4 5.70005 445.3 5.80005C446.2 5.50005 447.3 5.20005 448.5 4.80005C449.7 4.50005 451 4.10005 452.2 3.80005C453.4 3.60005 454.5 3.30005 455.3 3.10005C456.1 2.90005 456.7 2.70005 456.9 2.50005C456.9 2.60005 456.5 3.60005 456.3 3.70005C458.4 2.60005 460.7 1.60005 463.2 0.900049C462.9 1.20005 463.2 1.90005 463.3 2.50005C463.3 2.80005 463.3 3.10005 463 3.30005C462.7 3.50005 462.3 3.60005 461.5 3.70005C462.4 3.80005 463.4 4.10005 465.3 4.00005C464.7 3.80005 463.9 2.80005 464.8 2.80005C465.9 3.30005 466.3 3.50005 466.7 3.70005C467.1 3.90005 467.7 4.10005 468.9 4.70005C468.5 4.50005 468.6 4.20005 469 4.00005C469.4 3.80005 470.1 3.70005 470.8 3.90005C470.5 4.00005 470.6 5.00005 470.1 5.00005C471.3 5.00005 472.6 4.90005 473.9 5.00005C473 4.90005 473.4 5.80005 474.1 6.40005C474 6.20005 474.7 6.50005 475.5 6.90005C476.3 7.30005 477.3 7.80005 477.8 8.00005L476.5 7.10005C477.4 7.60005 478.1 7.80005 478.7 8.00005C479.3 8.20005 479.8 8.30005 480.4 8.30005C480.9 8.40005 481.5 8.50005 482.1 8.70005C482.7 8.90005 483.4 9.30005 484.2 9.90005C483.6 9.80005 482.4 10.4 484 11.6C484.5 11.7 485.7 11.8 487.3 12.2C488.1 12.4 488.8 12.8 489.7 13.2C490.5 13.6 491.3 14.1 492 14.9L492.2 15.7L493.3 16.7001C493.7 17 493.9 17.5 494.3 17.8C493.5 17.2 491.8 16.3 490.2 15.3C488.5 14.4 486.8 13.5 485.6 13C486.1 13.6 486.1 13.7 486.2 13.9C486.3 14.1 486.5 14.3 487.3 15.1C487.5 15.5 487.2 15.4 486.8 15.1C486.4 14.8 485.9 14.4 485.7 14.2C486.3 14.8 486.8 15.4001 487.4 16.1L488.2 17L488.9 18C489.1 17.7001 489.8 18.4 490.6 19C491.2 19.7001 491.9 20.5 492.1 20.3C491 18.8 489.6 17.5 488.2 16.2001C488.3 16 488.6 16 489 16.2001C489.4 16.3001 489.9 16.6 490.4 17C490.9 17.4 491.6 17.9 492.2 18.6C492.8 19.3001 493.3 20 493.8 20.9C493.9 21.4 493.6 21.4 493.2 21.3C492.8 21.2 492.3 21 492.3 21.1C492.4 21.2001 492.6 21.4001 492.8 21.7001C493 22 493.2 22.4001 493.4 22.7001C493.8 23.4001 494.2 24.2 494.2 24.4L493.2 23.2001C493.4 23.7001 493.6 24.1 493.8 24.5C494 24.9 494.2 25.3001 494.5 25.6C494.7 26 494.9 26.4 495.1 26.9C495.2 27.1 495.3 27.4 495.3 27.6C495.3 27.9 495.3 28.2001 495.3 28.5C495.4 28.9 495.3 29.6 495.3 30.1C495.2 30.7001 495.2 31.1 495.4 31.2001C496 29.7001 498.2 28.9 498.9 29.8C498.9 30 498.9 31.2001 498.9 32.5C498.8 33.8 498.6 35.2001 498.4 35.7001C498.1 36.4001 497.7 35.9 497.4 35.3C497 34.7001 496.6 34.2001 496.4 34.8C496.6 34.8 496.8 35.6 496.9 36C496.7 36.9001 496.3 35.6 496.4 37.6C497.1 38 496.1 41.6 496.9 38.6C497 40.6 496.6 40.7001 496.3 42.9001C496.6 42.6001 496.9 43.1 497 44.1C497.2 45 497.3 46.3 497.1 47.3C497 47.1 496.6 47.5 496.5 47.7001C495.4 51.7001 494.4 53.6001 493 57.2001C492.7 57.5 491.8 59.1001 491.9 58.2001C491.8 58.8 491.8 59.3001 491.3 60.4001C489.8 62.2001 492.3 58 490.9 59.3C491.2 59.6 490.2 62.3 489.6 63.9C490.4 63.7 491.4 60.4 491.8 58.8C492.6 59.1 492.2 62.2 490.8 66C489.5 69 489.7 67 489.5 67.5C486.6 72.7 488.4 72.7001 485.5 76.8C484 78.3 484.5 76.4 484 76.5C485.1 74.1 486.2 73.2 487 71.6L485.7 73.4C485.9 72.6 486.6 71 487.2 70.2C486.6 70.8 485.4 73 484 75.6C482.5 78.1 480.9 81 479.6 82.8C479.3 83.6001 478.8 84.9 479.3 84.4L480 83.1C481.1 82.2 479.1 85.8 480.2 84.3C479.4 86.1001 478.8 88.3 477.1 90.5L476.3 90.6C476.5 90.6 477.6 89.3 477.8 88.5C477.4 89.6 474.8 91.7 474.9 93.2L476.3 91.8C475.5 93.6001 474.7 96.1 473.2 98C474.3 97.4 473.5 97.5 475 96.4C474.2 96.8 475.1 95.5 475.9 94.3C476.7 93.1001 477.4 91.9 476.4 92.7C478 91.6 478.4 90.3 480.2 88.6C480 88.6 479.4 89.1 480.6 87.4C480.6 87.3 480.6 87.1 480.7 86.9C480.7 86.8 480.8 86.8 480.8 86.8L480.7 86.9C480.7 86.8 480.7 86.8 480.7 86.9C480.4 87.3 480.1 87.6 479.9 87.6C480 86.5 481.7 83.7 482.1 82.6C482.8 81.6 482 83.2 482.6 82.7L483.1 81.1C483.6 81.2 485.4 78.6001 484.2 81.3L485.5 79C486.5 77.8 487.6 76 488.1 74.8C488.8 73.8 489.1 71.8 488.9 72.9C489.5 71.7001 490 70.4 490.6 69.2H490.7C492.6 65.6 493.8 61.4001 496.3 57.4001C496.7 56.1001 497.1 54.7001 497.9 52.5L498.4 52.2001C498.6 51.3 499.1 50.1001 499.5 48.9001C499.8 47.7001 500.2 46.6001 500 46.2001C500.3 45.8 500.6 45 500.9 44.1C501.1 43.1 501.3 42 501.4 40.8C501.6 38.4 501.5 35.8 501.4 34.1L500.9 34C500.9 33.4001 500.8 32.9 500.8 32.3C500.7 31.7 500.6 31.2001 500.5 30.6C500.4 30 500.3 29.4 500.1 28.8C499.9 28.2 499.7 27.6 499.5 26.9L499.1 27.2001C498.9 26.6 498.7 26 498.4 25.3C498.2 24.6 498 23.8 497.7 23C497.1 21.4 496.5 19.6 495.4 18C495.7 18.1 496.2 19 496.4 19.6C496 18.5 495.5 17.5 494.8 16.5C494.1 15.5 493.3 14.7 492.5 13.8C491.7 13 490.7 12.3 490 11.5C489.6 11.1 489.2 10.8 488.8 10.4C488.4 10 488.1 9.70005 487.7 9.30005C486.8 8.70005 486.3 8.30005 485.8 7.80005C485.9 7.90005 486 7.90005 486 7.90005C485.9 7.80005 485.8 7.70005 485.7 7.70005C485.4 7.40005 485.1 7.00005 484.7 6.70005C485 7.00005 485.3 7.30005 485.5 7.60005C484.9 7.20005 483.9 6.50005 482.8 6.00005L482.6 5.30005C482.5 5.30005 482.4 5.20005 482.4 5.20005C481.5 4.50005 481.5 4.90005 481.8 5.60005C481.3 5.40005 480.8 5.20005 480.3 5.10005C479.8 4.00005 477.5 4.00005 476.7 2.80005C476.3 2.90005 474.9 2.40005 473.5 2.10005C472.1 1.80005 470.7 1.60005 470.3 2.00005C470.3 1.90005 470 1.70005 470.6 1.90005C469.4 1.50005 468.2 1.20005 467 1.20005L466.6 0.500049C465.6 0.600049 464.7 0.800049 463.8 1.00005C463.4 0.900049 463.1 0.700049 462.8 0.600049C462.5 0.500049 462.3 0.400049 462.3 0.300049C462.1 0.100049 462.4 -0.0999512 463.2 -0.199951C459.1 0.400049 459.9 -0.0999511 456.5 0.800049L456.6 0.400049C456.3 0.400049 455.9 0.500049 455.6 0.500049C455.2 0.600049 454.9 0.700049 454.5 0.800049C453.8 1.00005 453.1 1.10005 452.7 1.00005C451.3 0.800049 448 1.50005 444.3 2.80005C440.6 4.10005 436.7 6.20005 433.5 7.80005C434.4 7.90005 433.6 8.30005 432.7 8.70005C431.7 9.10005 430.7 9.70005 430.8 10.1C430.3 10.1 429.4 10.6 430.2 9.70005C428.8 10.8 427.7 11.6 426.8 12.4C425.8 13.1 425.1 13.9 424.4 15C423.9 15.1 424.7 14.2 424.3 14.3C424.1 14.5 423.6 15.2 423.2 15.4C422.8 15.5 423.4 14.9 423.8 14.4C421.2 17 421.6 17.9 422 18.6C420.5 19.7001 419.9 20.4001 419.5 21.7001C418.9 22 418 22.7 419.4 20.9C418.9 21.3 417.7 22.8001 416.6 24.2001C415.5 25.6 414.6 27 414.9 27.3C414.6 27.5 413.9 28.8 413.8 29C413.3 29.7001 413 30.2001 412.8 30.6C412.6 31 412.3 31.4001 411.9 32.2001L412.2 31.9C412.1 32.8 411.9 33.3 411.7 33.7001C411.6 33.9001 411.5 34.1001 411.3 34.2001C411.2 34.3 411.2 34.4001 411.1 34.5L410.6 35C410.6 35 410.6 34.8 410.5 34.8C410.5 34.7001 410.4 34.5 410.4 34.4001V34.3C410.2 33.1 410.2 32.5 410.1 32.2001C410 31.8 409.9 31.7001 409.9 31.6C409.8 31.5 409.8 31.3 409.7 31C409.6 30.6 409.5 30.1 409.3 29.2001C409.2 29.3001 409.1 29.5 409 29.6C408.7 29.7001 408.6 29.5 408.4 29C408.2 28.5 408.1 27.9001 407.8 27.2001C407.6 26.5 407.3 25.7001 407 25C406.7 24.3 406.3 23.6 405.8 23L406.1 24.1C405.5 23.5 405.3 22.3001 404.9 21.2001C404.6 20 404.3 18.8001 403.8 18.1C403.6 17.8001 404.3 18.4 404.7 18.8C402.4 15 403.9 18.7 401.6 16.4C401.4 15.7 402.8 16.4 401.3 14.7C401.2 14.5 400.8 14.1 400.2 13.6C399.6 13.2 398.9 12.7 398.1 12.2C397.4 11.7 396.5 11.2 395.8 10.6C395.4 10.3 395.1 10.1 394.7 9.80005C394.4 9.50005 394 9.30005 393.8 9.00005C394.2 9.60005 394.6 10.1 393.2 9.50005C391.3 8.20005 388.3 5.50005 386 5.40005C385.8 5.20005 385.7 5.10005 385.7 5.00005C384.8 4.80005 383.5 4.40005 382.2 4.10005C381 4.00005 379.7 3.80005 379.2 3.90005C378.9 3.40005 378.1 3.10005 377 2.90005C375.9 2.60005 374.6 2.70005 373.3 2.70005C372 2.70005 370.8 2.90005 370 2.80005C369.1 2.80005 368.5 2.70005 368.5 2.40005C367.6 2.50005 366.7 2.50005 365.8 2.70005L363.1 3.10005L363.2 2.90005C361.5 3.20005 360.4 3.50005 359.5 3.90005C358.7 4.30005 358.2 4.60005 357.7 5.00005C356.9 5.10005 357.4 4.80005 357.5 4.70005C356.3 5.00005 355.4 5.40005 354.6 5.60005C353.8 5.90005 353.2 6.10005 352.7 6.50005C352.1 6.80005 351.6 7.10005 351 7.60005C350.4 8.00005 349.8 8.60005 349 9.30005L348.3 9.00005C348.1 9.20005 347.6 9.50005 346.9 9.90005C346.2 10.3 345.3 10.8 344.4 11.5C343.5 12.2 342.4 12.9 341.5 13.8C341 14.2 340.5 14.7 340.1 15.1C339.7 15.6 339.3 16.1 338.9 16.6C338.9 16.5 338.9 16.4 339.1 16C337.3 18.2001 335.2 20.7001 333.4 23.1C333 23.8001 332.6 24.4 332.3 25C332.1 25.3 332 25.6 331.8 25.8C331.7 26.1 331.6 26.4 331.5 26.6C331.1 27.7001 331 28.6 331.2 29.2001C330.8 30.4001 330.6 31.6 330.4 32.8C331.9 28.4 331 33.7001 331.8 32C331.4 33.7001 329.9 36.3 330.5 34.2001L330.7 33.9001C330.5 33.6001 330.3 33.8 330.1 34.3C330 34.5 329.9 34.8 329.8 35.2001C329.7 35.5 329.6 35.9 329.5 36.3C329.2 37.8 328.8 39.4 328.5 39.3C328 43.7001 327.8 48.3 328.2 52.8C328.7 57.2001 329.4 61.6 330.7 65.7L331.1 64.5C331.4 65.5 331.6 66.4 331.9 67.4C332 68.2001 331.7 68.6 331 66.6C331 67.8 332.5 69.9 332.7 69.9C333.2 71.9 332.9 71.6 332.5 70.9C332.1 70.2001 331.6 69.2001 331.8 69.8C332 70.3 332.2 70.9 332.4 71.4C332.4 71.3 332.4 71.1 332.3 71C333.1 72.2 333.4 72.2 334.4 74.6C334.9 76.2 334.3 75.5 334.5 76.1C334.5 76.1 334.5 76.3 334.9 77C335.4 78.1 335.9 79.3 336.4 80.4C336.3 79.9 336.3 79.3 336.3 78.8C337.2 80.2001 337.9 81.9 337.6 80.1C337.7 80.8 338.1 81.9 338.7 83.2C339.3 84.5 340.1 86 340.9 87.5C342.6 90.4 344.4 93.1001 344.7 93.8C346.3 95.5 347.6 97.4 349.1 99.7C348.8 99.1 349.1 98.3 350.4 100.4C348.8 100.5 352.5 104.3 352.9 106.5C352.3 104.7 357.2 111.9 356.3 109.2C357.5 110.9 356 109.6 356.7 111C360.1 114.5 363.2 119.5 367.3 123.8C367.5 123.8 367 122.8 368.1 123.6L369.6 126.5C370.5 127.3 371.1 126.6 372.1 128.6C372 128.3 371.8 127.8 372.4 128.3C376.1 132.8 380.5 136.9 385 140.9C389.5 144.9 394 148.8 398.2 153.1C397.1 151.8 398 152.5 399 153.2C398.4 152.6 399.3 152.9 399.3 152.6C400.4 153.8 401.6 155 402.8 156.1C403.4 156.1 404.4 156.9 405.5 157.7C406.5 158.4 407.5 159.2 407.9 159.1L406.6 158.3C408.7 158.9 405.2 155.3 406 154.7C404.8 154.3 403.8 153.2 402.6 151.9C401.4 150.6 400.1 149.3 398.2 148.6C397.7 147.9 399 148.8 398.7 148.4C397.7 148.1 396.7 147.4 395.2 145.9L395.5 146C390.8 142.2 389.1 140.2 384.4 135.4V136.1C383.4 135 383.3 134.7 382.9 134.2C381.2 133.6 385.8 137.1 384.2 136.6C383.4 134.6 376.8 129.4 376.7 127.7C375.2 126.1 376.8 128.6 375.2 126.9L375 126.3L374.3 126.2C373.3 125.1 373.1 124.3 373.2 124.1C373.4 124.4 373.9 124.8 374.2 125.1C373.2 123.5 370.5 121.2 370.1 120.7L371.4 122.4C367.1 118.1 362.6 112.1 358.5 107.8L358.6 108.3C355.6 104.9 356.6 105.3 353.5 101.4L353.6 101.5C352.8 100.8 352 99.8 351.2 98.7C352.1 99.6 350.3 96.5 351.4 97.7C348.3 93.9 349.7 95.9 347.2 93.7L347.1 92.9C346.2 92.2001 346 92.2 344.6 90.1C345.9 91.7 344.3 88.5 345.8 90.2C344.8 87.8 343.6 86.3 342.8 85C341.9 83.7 341.2 82.7001 341.2 81.4C340.2 80.6 340.6 81.6001 341.1 82.8C341.7 83.9 342.4 85.1 342 84.6C342.3 85.7 340.3 83.3 339.7 81.7C339.3 81 339.3 80.2 339.1 79.1C339 78 338.7 76.7001 337.8 74.8C338 75.2001 338.1 75.2 338.2 75.5C337.8 74 336.7 72.9 336.4 70.9C335.4 70.2001 335.6 68.6 334.7 68.6L335.4 70.4L336.2 72.1C335.7 71.1 335 70.3 334.5 69.2C334.2 68.7 333.9 68.1 333.6 67.4C333.5 67.1 333.3 66.7001 333.2 66.3C333.1 65.9 333 65.5 332.9 65.1C333.1 65.3 333.6 66.3 334 66.9C333.9 65.9 333.3 65 333.2 63.9C333.6 63.9 334 65 334.4 66.3C334.9 67.6001 335.4 69.2 336.1 70.1C336 69 334.1 66.2 335.3 67C334.9 66.7 334.6 66.3 334.4 65.9C334.2 65.4 334.1 64.9 334 64.3C333.8 63.2001 333.4 61.9001 332.7 60.7001L333.2 60.8C333 60.4 332.6 59.6 332.5 58.8L333.4 60.1C332.9 59.1 332.8 58 332.7 56.9001C332.7 55.8001 332.7 54.8 332.4 53.8C333.1 58.2001 332 54.9 331.9 56.8C331.2 54.1 331.3 53.3001 331.6 52.4001C331.7 51.9001 331.9 51.5 332 50.7001C332.1 50 332 49 332 47.5C332 48.3 331.9 50.6 331.5 49.3C331.5 48.1 331.8 46.6001 332 45.9001C331.9 43.9001 331.9 44.1 331.7 44.5C331.5 44.9001 331.4 45.7001 331.2 44.8C331.9 43.5 331.1 42.8 331.1 41H331.6C331.7 40.4001 331.8 40 331.8 39.6C331.9 39.3 331.9 39 331.9 38.8C331.9 38.4 331.8 38.2 331.7 38.1C331.5 37.8 331.3 37.6 331.9 35.6C331.9 36.2 332.1 36.9001 332.2 37.5C332.3 36.8 332.3 36.1001 332.5 35.4001L332.9 36C333 34.8 333.2 34.1001 333.4 33.4001C333.5 33 333.6 32.7001 333.8 32.3C334 31.9 334.2 31.5 334.5 31C334 31.4 333.8 30.4 334.6 28.5C335.5 27.4 334.6 29.4 335.9 26.8C335.9 27.2 335.9 27.5 335.7 27.9C335.6 28.1 335.5 28.3 335.4 28.5C335.3 28.7001 335.1 29 334.9 29.2001C335 29.4001 334.9 29.9 335 30.1C335.8 28.8001 336.7 26.8 337.2 25.9C337 26.2 336.7 26.6 336.6 26.8L336.9 25.8L337.3 24.9C337.6 24.3 337.9 23.6 338.2 23C338.8 22.6 338.5 23.1 338.4 23.6C338.8 22.9 339 22.3 339.8 21.3C339.9 21.8 340.3 22 339.4 23.5C340.1 22.4 340.7 21.3001 341.5 20.2001C341.8 20.1 343.2 19.1 342.9 19.5C343.3 19.2001 343.8 18.8 344.2 18.3C344.6 17.8 345.1 17.3 345.6 16.8C346.1 16.3 346.6 15.8 347.2 15.3C347.8 14.8 348.4 14.4 349 14.1C349.1 14 349.3 13.7 349.8 13.3C351 12.7 352.2 12.1 353.4 11.6C354 11.3 354.6 11 355.3 10.7C356 10.4 356.6 10.1 357.3 9.60005C357.9 9.60005 358.6 9.70005 359.2 9.70005C361.5 8.80005 356.6 9.60005 360.5 8.10005C363.4 7.20005 361.7 8.40005 362.8 8.40005C363.5 8.00005 364.4 7.70005 365.6 7.30005C366.2 7.10005 366.8 7.00005 367.4 7.00005C368 7.00005 368.7 6.90005 369.4 7.10005C369.1 6.70005 368.4 6.70005 367.6 6.80005ZM396.2 16.6C395.7 16.3001 394.6 15.7 394.4 15.2C395.3 15.2 395.5 15.8001 396.2 16.6ZM425.1 18.7001C424.9 19.1 424.3 19.6 423.6 20.1C424 19.6 424.5 19.2001 425.1 18.7001ZM486.2 77.4C487.1 76.2001 486.8 76.6 486.2 77.4V77.4ZM484.5 79.9C484.4 80.2001 484.5 80.2 484.6 80.1C484.6 79.9 484.9 79.3 485.3 78.6C485.2 78.8 484.9 79.1 484.5 79.9ZM334.9 76.4L334.8 75.8C335.5 76.9 335.2 76.6 334.9 76.4Z" fill="#283592"/>
<path d="M421.8 23.3C421.6 23.4 421.5 23.4 421.4 23.3C421.3 23.5 421.4 23.6 421.8 23.3Z" fill="#283592"/>
<path d="M349.7 13.4C349.6 13.5 349.6 13.5 349.6 13.6L349.7 13.4Z" fill="#283592"/>
<path d="M496.3 36.2C496.4 35.6 496.5 35.3 496.5 35.1C496.4 35 496.3 35.3 496.3 36.2Z" fill="#283592"/>
<path d="M477.1 93.9001L478 92.2001C477.5 93.0001 477.3 93.2001 476.9 93.6001C477 93.7001 477.4 93.4001 477.1 93.9001Z" fill="#283592"/>
<path d="M465.4 106.1C465.3 106.4 465.1 106.6 465 106.8L465.2 106.9C465.8 105.9 466.2 105.1 465.4 106.1Z" fill="#283592"/>
<path d="M474.8 94.6001C474.4 94.5001 473.8 95.6001 473.2 96.7001C473.2 96.6001 473.3 96.6001 473.3 96.5001C473.5 97.2001 474.2 95.9001 474.8 94.6001Z" fill="#283592"/>
<path d="M473 97C472.8 97.4 472.6 97.7 472.3 98C472.4 98.3 472.6 97.6 473 97Z" fill="#283592"/>
<path d="M482.901 83.4C482.501 83.9 483.101 84 482.801 84.2C482.901 85.1 484.401 80.2 482.901 83.4Z" fill="#283592"/>
<path d="M473.1 94.8L473.7 94.6L473.8 93.8L473.1 94.8Z" fill="#283592"/>
<path d="M478.9 86L477.7 87.8C477.8 87.8 477.7 88.1 477.5 88.4C478.3 87.2 479.1 86.1 478.9 86Z" fill="#283592"/>
<path d="M477.6 88.4C477.2 89 476.9 89.5 476.8 89.9C476.9 89.5 477.3 88.9 477.6 88.4Z" fill="#283592"/>
<path d="M474.5 92.2L474.9 91.7L475.7 90.5L474.5 92.2Z" fill="#283592"/>
<path d="M490.2 66C490.5 65.3 490.8 64.6 491.1 63.8C491 63.5 490.7 64 490.4 64.8C490.2 65.5 489.9 66.3 490.2 66Z" fill="#283592"/>
<path d="M485.7 71.6C486.1 71.1 486.2 71.1 486.5 70.9L486 70.5L485.7 71.6Z" fill="#283592"/>
<path d="M488.7 65.6001C488.6 65.3001 489.8 62.4001 488.5 65.0001C488.5 65.3001 487.6 67.4001 488.7 65.6001Z" fill="#283592"/>
<path d="M497.8 32.6001C497.8 32.8001 497.8 33.0001 497.9 33.2001L498.9 33.0001L497.8 32.6001Z" fill="#283592"/>
<path d="M480 10.2C481.1 10.9 481.3 10.9 481.4 10.9C481.6 10.8 481.7 10.8 482.6 11.6C483.2 11.8 481.2 10.3 481.8 10.5C480.4 9.80003 479.7 9.30003 480 10.2Z" fill="#283592"/>
<path d="M481.9 10.4C482.1 10.5 482.4 10.6 482.6 10.7C482.2 10.6 482 10.5 481.9 10.4Z" fill="#283592"/>
<path d="M405.3 158.5L406.6 159.7L405.9 158.8L405.3 158.5Z" fill="#283592"/>
<path d="M408.5 159.9V160.7L409.7 160.8C409.4 160.6 408.7 160.2 408.5 159.9Z" fill="#283592"/>
<path d="M398.4 20.8001H398.6C398.6 20.5001 398.4 20.2001 397.8 19.6001C398.1 20.0001 398.3 20.4001 398.4 20.8001Z" fill="#283592"/>
<path d="M380.4 8.50002L380.7 8.60002L380.2 7.90002L380.4 8.50002Z" fill="#283592"/>
<path d="M362.2 9.00002C362.9 8.90002 363.8 8.50002 364.5 8.40002C362.9 8.80002 361.8 8.30002 362.2 9.00002Z" fill="#283592"/>
</g>
<rect opacity="0.1" y="139" width="294" height="254" rx="20" fill="#283592"/>
<path d="M24.6667 336C24.6667 347.782 34.2179 357.333 46 357.333C57.7821 357.333 67.3333 347.782 67.3333 336C67.3333 324.218 57.7821 314.667 46 314.667C34.2179 314.667 24.6667 324.218 24.6667 336ZM199.5 182.5L202.328 179.672C200.766 178.109 198.234 178.109 196.672 179.672L199.5 182.5ZM251.5 234.5L248.672 237.328C250.234 238.891 252.766 238.891 254.328 237.328L251.5 234.5ZM419 71C419 68.7909 417.209 67 415 67H379C376.791 67 375 68.7909 375 71C375 73.2091 376.791 75 379 75H411V107C411 109.209 412.791 111 415 111C417.209 111 419 109.209 419 107V71ZM48.8284 338.828L202.328 185.328L196.672 179.672L43.1716 333.172L48.8284 338.828ZM196.672 185.328L248.672 237.328L254.328 231.672L202.328 179.672L196.672 185.328ZM254.328 237.328L417.828 73.8284L412.172 68.1716L248.672 231.672L254.328 237.328Z" fill="#1EA6AE"/>
<defs>
<clipPath id="clip0_171_4822">
<rect width="173.4" height="161" fill="white" transform="translate(328)"/>
</clipPath>
</defs>
</svg>
