<svg width="21" height="20" viewBox="0 0 21 20" fill="none" xmlns="http://www.w3.org/2000/svg">
<path d="M17.7124 17.0444H14.7564V12.4025C14.7564 11.2956 14.7333 9.87313 13.2106 9.87313C11.6691 9.87313 11.4343 11.0737 11.4343 12.3206V17.0438H8.47448V7.49937H11.3175V8.80125H11.3556C11.7528 8.04937 12.719 7.25875 14.1605 7.25875C17.1591 7.25875 17.7156 9.23438 17.7156 11.8031V17.0438L17.7124 17.0444ZM5.13055 6.195C4.17684 6.195 3.41237 5.42313 3.41237 4.4725C3.41237 3.525 4.17996 2.75437 5.13055 2.75437C6.08114 2.75437 6.85123 3.525 6.85123 4.4725C6.85123 5.42313 6.08114 6.195 5.13055 6.195ZM6.61327 17.0444H3.64721V7.5H6.61327V17.0444ZM19.1964 0H2.16074C1.34693 0 0.686768 0.644375 0.686768 1.44187V18.5588C0.686768 19.3563 1.34693 20.0006 2.16074 20.0006H19.1933C20.0058 20.0006 20.6729 19.3563 20.6729 18.5588V1.44187C20.6729 0.644375 20.0058 0 19.1933 0L19.1964 0Z" fill="#283592"/>
</svg>
