<svg width="128" height="126" viewBox="0 0 128 126" fill="none" xmlns="http://www.w3.org/2000/svg">
<path d="M62.127 1.0061L63 63L7.06055 36.2314C16.9336 15.6375 37.8438 1.34131 62.127 1.0061Z" fill="#283592" stroke="white" stroke-width="0.5"/>
<path d="M113.213 99.3757C120.627 89.1584 125 76.5898 125 63C125 28.7583 97.2422 1 63 1C62.748 1 62.4961 1.00171 62.2441 1.00464L63.5 63L113.213 99.3757Z" fill="#EC1E7B" stroke="white" stroke-width="0.5"/>
<path d="M2.10547 74.7166L63.5 63L104.301 109.242C93.3359 119.042 78.8633 125 63 125C32.7637 125 7.58203 103.356 2.10547 74.7166Z" fill="#BCAEC6" stroke="white" stroke-width="0.5"/>
<path d="M6.96094 36.4417L63.5 63.5L2.05859 74.4717C1.36328 70.7542 1 66.9194 1 63C1 53.4961 3.13867 44.4917 6.96094 36.4417Z" fill="#1EA6AE" stroke="white" stroke-width="0.5"/>
<path d="M104.324 109.221C107.582 106.307 110.529 103.053 113.111 99.5154L64 63.5L104.324 109.221Z" fill="#A7A7A7" stroke="white" stroke-width="0.5"/>
<path d="M38.26 35.1C37.74 35.1 37.28 35 36.88 34.8C36.4867 34.6 36.18 34.32 35.96 33.96C35.7467 33.6 35.64 33.19 35.64 32.73C35.64 32.2767 35.7667 31.88 36.02 31.54C36.2733 31.1933 36.6267 30.9767 37.08 30.89V30.77C36.7267 30.6967 36.45 30.5233 36.25 30.25C36.05 29.97 35.95 29.66 35.95 29.32C35.95 28.92 36.0467 28.5667 36.24 28.26C36.44 27.9467 36.7167 27.7033 37.07 27.53C37.4233 27.3567 37.82 27.27 38.26 27.27C38.7 27.27 39.0967 27.3567 39.45 27.53C39.8033 27.7033 40.0767 27.9467 40.27 28.26C40.47 28.5667 40.57 28.92 40.57 29.32C40.57 29.66 40.4667 29.97 40.26 30.25C40.06 30.53 39.7867 30.7033 39.44 30.77V30.89C39.8933 30.9767 40.2467 31.1933 40.5 31.54C40.7533 31.88 40.88 32.2767 40.88 32.73C40.88 33.19 40.77 33.6 40.55 33.96C40.3367 34.32 40.03 34.6 39.63 34.8C39.2367 35 38.78 35.1 38.26 35.1ZM38.26 30.52C38.7 30.52 39.04 30.4167 39.28 30.21C39.5267 29.9967 39.65 29.7033 39.65 29.33C39.65 28.9633 39.5233 28.6667 39.27 28.44C39.0167 28.2133 38.68 28.1 38.26 28.1C37.84 28.1 37.5033 28.2133 37.25 28.44C36.9967 28.6667 36.87 28.9633 36.87 29.33C36.87 29.7033 36.99 29.9967 37.23 30.21C37.4767 30.4167 37.82 30.52 38.26 30.52ZM38.26 34.27C38.76 34.27 39.1667 34.1367 39.48 33.87C39.8 33.5967 39.96 33.2167 39.96 32.73C39.96 32.2767 39.8067 31.9133 39.5 31.64C39.1933 31.36 38.78 31.22 38.26 31.22C37.74 31.22 37.3267 31.36 37.02 31.64C36.7133 31.9133 36.56 32.2767 36.56 32.73C36.56 33.2167 36.7167 33.5967 37.03 33.87C37.35 34.1367 37.76 34.27 38.26 34.27ZM42.7334 35.1C42.5668 35.1 42.4234 35.0433 42.3034 34.93C42.1834 34.81 42.1234 34.6667 42.1234 34.5C42.1234 34.34 42.1834 34.2033 42.3034 34.09C42.4234 33.9767 42.5668 33.92 42.7334 33.92C42.8868 33.92 43.0201 33.98 43.1334 34.1C43.2468 34.2133 43.3034 34.3467 43.3034 34.5C43.3034 34.6667 43.2468 34.81 43.1334 34.93C43.0201 35.0433 42.8868 35.1 42.7334 35.1ZM47.2863 35.09C46.4463 35.09 45.7763 34.8767 45.2763 34.45C44.7763 34.0167 44.5063 33.4333 44.4663 32.7H45.3863C45.4396 33.2 45.6229 33.5867 45.9363 33.86C46.2496 34.1267 46.7029 34.26 47.2963 34.26C47.7963 34.26 48.1963 34.13 48.4963 33.87C48.7963 33.6033 48.9463 33.2433 48.9463 32.79C48.9463 32.29 48.7629 31.93 48.3963 31.71C48.0296 31.49 47.5596 31.38 46.9863 31.38H46.5163V30.55H46.9663C47.3863 30.55 47.7429 30.4433 48.0363 30.23C48.3363 30.0167 48.4863 29.7 48.4863 29.28C48.4863 28.92 48.3663 28.6367 48.1263 28.43C47.8863 28.2167 47.5663 28.11 47.1663 28.11C46.7263 28.11 46.3696 28.2367 46.0963 28.49C45.8229 28.7433 45.6629 29.11 45.6163 29.59H44.6963C44.7163 29.15 44.8363 28.7533 45.0563 28.4C45.2763 28.0467 45.5663 27.7733 45.9263 27.58C46.2929 27.38 46.6929 27.28 47.1263 27.28C47.5796 27.28 47.9796 27.3667 48.3263 27.54C48.6729 27.7067 48.9396 27.94 49.1263 28.24C49.3129 28.54 49.4063 28.88 49.4063 29.26C49.4063 29.54 49.3429 29.7967 49.2163 30.03C49.0963 30.2567 48.9296 30.44 48.7163 30.58C48.5096 30.72 48.2763 30.7967 48.0163 30.81V30.97C48.5496 30.9967 48.9896 31.1733 49.3363 31.5C49.6896 31.82 49.8663 32.26 49.8663 32.82C49.8663 33.2533 49.7529 33.6433 49.5263 33.99C49.3063 34.3367 48.9996 34.6067 48.6063 34.8C48.2129 34.9933 47.7729 35.09 47.2863 35.09Z" fill="white"/>
<path d="M83.6 46.09C83.6 45.8833 83.6333 45.68 83.7 45.48L83.58 45.43C83.4267 45.7033 83.2367 45.9333 83.01 46.12C82.7767 46.32 82.51 46.49 82.21 46.63C81.9167 46.7633 81.65 46.86 81.41 46.92V46.02C81.8767 45.9267 82.3067 45.7167 82.7 45.39C83.1 45.0633 83.4067 44.7233 83.62 44.37H84.52V52H83.6V46.09ZM88.6588 52.1C87.7254 52.1 87.0288 51.77 86.5688 51.11C86.1154 50.45 85.8888 49.5667 85.8888 48.46C85.8888 47.1933 86.1188 46.18 86.5788 45.42C87.0388 44.6533 87.7388 44.27 88.6788 44.27C89.3454 44.27 89.8854 44.4567 90.2988 44.83C90.7188 45.1967 90.9888 45.6967 91.1088 46.33H90.2388C90.1254 45.9233 89.9421 45.6167 89.6888 45.41C89.4354 45.2033 89.0988 45.1 88.6788 45.1C88.1188 45.1 87.6921 45.2967 87.3988 45.69C87.1121 46.0767 86.9288 46.62 86.8488 47.32C86.8221 47.5467 86.7488 47.8233 86.6288 48.15L86.7488 48.22C86.9821 47.78 87.2621 47.4733 87.5888 47.3C87.9221 47.12 88.2921 47.03 88.6988 47.03C89.1788 47.03 89.5988 47.1367 89.9588 47.35C90.3254 47.5633 90.6088 47.86 90.8088 48.24C91.0088 48.62 91.1088 49.05 91.1088 49.53C91.1088 50.01 91.0054 50.4467 90.7988 50.84C90.5921 51.2333 90.3021 51.5433 89.9288 51.77C89.5554 51.99 89.1321 52.1 88.6588 52.1ZM88.6488 51.27C88.9621 51.27 89.2354 51.1933 89.4688 51.04C89.7021 50.8867 89.8788 50.6833 89.9988 50.43C90.1254 50.17 90.1888 49.8833 90.1888 49.57C90.1888 49.0567 90.0488 48.6433 89.7688 48.33C89.4954 48.0167 89.1221 47.86 88.6488 47.86C88.3221 47.86 88.0254 47.9333 87.7588 48.08C87.4921 48.2267 87.2821 48.43 87.1288 48.69C86.9821 48.95 86.9088 49.2433 86.9088 49.57C86.9088 49.8967 86.9821 50.19 87.1288 50.45C87.2821 50.7033 87.4888 50.9033 87.7488 51.05C88.0154 51.1967 88.3154 51.27 88.6488 51.27ZM92.9913 52.1C92.8246 52.1 92.6813 52.0433 92.5613 51.93C92.4413 51.81 92.3813 51.6667 92.3813 51.5C92.3813 51.34 92.4413 51.2033 92.5613 51.09C92.6813 50.9767 92.8246 50.92 92.9913 50.92C93.1446 50.92 93.2779 50.98 93.3913 51.1C93.5046 51.2133 93.5613 51.3467 93.5613 51.5C93.5613 51.6667 93.5046 51.81 93.3913 51.93C93.2779 52.0433 93.1446 52.1 92.9913 52.1ZM97.5441 52.09C96.7041 52.09 96.0341 51.8767 95.5341 51.45C95.0341 51.0167 94.7641 50.4333 94.7241 49.7H95.6441C95.6974 50.2 95.8807 50.5867 96.1941 50.86C96.5074 51.1267 96.9607 51.26 97.5541 51.26C98.0541 51.26 98.4541 51.13 98.7541 50.87C99.0541 50.6033 99.2041 50.2433 99.2041 49.79C99.2041 49.29 99.0207 48.93 98.6541 48.71C98.2874 48.49 97.8174 48.38 97.2441 48.38H96.7741V47.55H97.2241C97.6441 47.55 98.0007 47.4433 98.2941 47.23C98.5941 47.0167 98.7441 46.7 98.7441 46.28C98.7441 45.92 98.6241 45.6367 98.3841 45.43C98.1441 45.2167 97.8241 45.11 97.4241 45.11C96.9841 45.11 96.6274 45.2367 96.3541 45.49C96.0807 45.7433 95.9207 46.11 95.8741 46.59H94.9541C94.9741 46.15 95.0941 45.7533 95.3141 45.4C95.5341 45.0467 95.8241 44.7733 96.1841 44.58C96.5507 44.38 96.9507 44.28 97.3841 44.28C97.8374 44.28 98.2374 44.3667 98.5841 44.54C98.9307 44.7067 99.1974 44.94 99.3841 45.24C99.5707 45.54 99.6641 45.88 99.6641 46.26C99.6641 46.54 99.6007 46.7967 99.4741 47.03C99.3541 47.2567 99.1874 47.44 98.9741 47.58C98.7674 47.72 98.5341 47.7967 98.2741 47.81V47.97C98.8074 47.9967 99.2474 48.1733 99.5941 48.5C99.9474 48.82 100.124 49.26 100.124 49.82C100.124 50.2533 100.011 50.6433 99.7841 50.99C99.5641 51.3367 99.2574 51.6067 98.8641 51.8C98.4707 51.9933 98.0307 52.09 97.5441 52.09Z" fill="white"/>
<path d="M117.6 111.09C117.6 110.883 117.633 110.68 117.7 110.48L117.58 110.43C117.427 110.703 117.237 110.933 117.01 111.12C116.777 111.32 116.51 111.49 116.21 111.63C115.917 111.763 115.65 111.86 115.41 111.92V111.02C115.877 110.927 116.307 110.717 116.7 110.39C117.1 110.063 117.407 109.723 117.62 109.37H118.52V117H117.6V111.09ZM120.526 117.1C120.36 117.1 120.216 117.043 120.096 116.93C119.976 116.81 119.916 116.667 119.916 116.5C119.916 116.34 119.976 116.203 120.096 116.09C120.216 115.977 120.36 115.92 120.526 115.92C120.68 115.92 120.813 115.98 120.926 116.1C121.04 116.213 121.096 116.347 121.096 116.5C121.096 116.667 121.04 116.81 120.926 116.93C120.813 117.043 120.68 117.1 120.526 117.1ZM126.089 110.81C126.176 110.643 126.259 110.513 126.339 110.42C126.426 110.327 126.556 110.207 126.729 110.06L126.659 109.94C126.453 110.04 126.279 110.11 126.139 110.15C125.999 110.183 125.849 110.2 125.689 110.2H122.059V109.37H127.379V110.16L123.859 117H122.849L126.089 110.81Z" fill="black"/>
<path d="M45.6 93.09C45.6 92.8833 45.6333 92.68 45.7 92.48L45.58 92.43C45.4267 92.7033 45.2367 92.9333 45.01 93.12C44.7767 93.32 44.51 93.49 44.21 93.63C43.9167 93.7633 43.65 93.86 43.41 93.92V93.02C43.8767 92.9267 44.3067 92.7167 44.7 92.39C45.1 92.0633 45.4067 91.7233 45.62 91.37H46.52V99H45.6V93.09ZM50.6106 93.82C51.0773 93.82 51.494 93.93 51.8606 94.15C52.2273 94.3633 52.514 94.6633 52.7206 95.05C52.9273 95.43 53.0306 95.8667 53.0306 96.36C53.0306 96.8733 52.9173 97.3367 52.6906 97.75C52.464 98.1633 52.1473 98.49 51.7406 98.73C51.3406 98.97 50.8873 99.09 50.3806 99.09C49.9206 99.09 49.504 98.9967 49.1306 98.81C48.764 98.6167 48.4673 98.3467 48.2406 98C48.014 97.6533 47.8773 97.2567 47.8306 96.81H48.7606C48.8273 97.2633 49.014 97.62 49.3206 97.88C49.6273 98.1333 50.004 98.26 50.4506 98.26C50.964 98.26 51.3673 98.0833 51.6606 97.73C51.9606 97.3767 52.1106 96.9267 52.1106 96.38C52.1106 95.8533 51.9573 95.4333 51.6506 95.12C51.344 94.8067 50.9373 94.65 50.4306 94.65C50.1106 94.65 49.814 94.7333 49.5406 94.9C49.274 95.0667 49.0673 95.2933 48.9206 95.58H47.9106L48.6706 91.37H52.6706V92.2H49.3606L49.0706 93.8C49.064 93.8267 49.0506 93.9067 49.0306 94.04C49.0106 94.1667 48.9606 94.3133 48.8806 94.48L48.9906 94.55C49.4306 94.0633 49.9706 93.82 50.6106 93.82ZM54.8643 99.1C54.6976 99.1 54.5543 99.0433 54.4343 98.93C54.3143 98.81 54.2543 98.6667 54.2543 98.5C54.2543 98.34 54.3143 98.2033 54.4343 98.09C54.5543 97.9767 54.6976 97.92 54.8643 97.92C55.0176 97.92 55.151 97.98 55.2643 98.1C55.3776 98.2133 55.4343 98.3467 55.4343 98.5C55.4343 98.6667 55.3776 98.81 55.2643 98.93C55.151 99.0433 55.0176 99.1 54.8643 99.1ZM59.4771 99.1C58.5438 99.1 57.8471 98.77 57.3871 98.11C56.9338 97.45 56.7071 96.5667 56.7071 95.46C56.7071 94.1933 56.9371 93.18 57.3971 92.42C57.8571 91.6533 58.5571 91.27 59.4971 91.27C60.1638 91.27 60.7038 91.4567 61.1171 91.83C61.5371 92.1967 61.8071 92.6967 61.9271 93.33H61.0571C60.9438 92.9233 60.7604 92.6167 60.5071 92.41C60.2538 92.2033 59.9171 92.1 59.4971 92.1C58.9371 92.1 58.5104 92.2967 58.2171 92.69C57.9304 93.0767 57.7471 93.62 57.6671 94.32C57.6404 94.5467 57.5671 94.8233 57.4471 95.15L57.5671 95.22C57.8004 94.78 58.0804 94.4733 58.4071 94.3C58.7404 94.12 59.1104 94.03 59.5171 94.03C59.9971 94.03 60.4171 94.1367 60.7771 94.35C61.1438 94.5633 61.4271 94.86 61.6271 95.24C61.8271 95.62 61.9271 96.05 61.9271 96.53C61.9271 97.01 61.8238 97.4467 61.6171 97.84C61.4104 98.2333 61.1204 98.5433 60.7471 98.77C60.3738 98.99 59.9504 99.1 59.4771 99.1ZM59.4671 98.27C59.7804 98.27 60.0538 98.1933 60.2871 98.04C60.5204 97.8867 60.6971 97.6833 60.8171 97.43C60.9438 97.17 61.0071 96.8833 61.0071 96.57C61.0071 96.0567 60.8671 95.6433 60.5871 95.33C60.3138 95.0167 59.9404 94.86 59.4671 94.86C59.1404 94.86 58.8438 94.9333 58.5771 95.08C58.3104 95.2267 58.1004 95.43 57.9471 95.69C57.8004 95.95 57.7271 96.2433 57.7271 96.57C57.7271 96.8967 57.8004 97.19 57.9471 97.45C58.1004 97.7033 58.3071 97.9033 58.5671 98.05C58.8338 98.1967 59.1338 98.27 59.4671 98.27Z" fill="white"/>
<path d="M17 62V60.18H13.46V59.27L16.99 54.37H17.92V59.35H19.08V60.18H17.92V62H17ZM14.26 59.52C14.5533 59.4067 14.8567 59.35 15.17 59.35H17V56.52C17 56.3667 17.0033 56.23 17.01 56.11C17.0233 55.9833 17.0533 55.8233 17.1 55.63L16.98 55.59C16.8667 55.7767 16.7 56.0333 16.48 56.36L14.88 58.62C14.78 58.7667 14.68 58.8967 14.58 59.01C14.4867 59.1233 14.36 59.2533 14.2 59.4L14.26 59.52ZM20.753 62.1C20.5863 62.1 20.443 62.0433 20.323 61.93C20.203 61.81 20.143 61.6667 20.143 61.5C20.143 61.34 20.203 61.2033 20.323 61.09C20.443 60.9767 20.5863 60.92 20.753 60.92C20.9063 60.92 21.0396 60.98 21.153 61.1C21.2663 61.2133 21.323 61.3467 21.323 61.5C21.323 61.6667 21.2663 61.81 21.153 61.93C21.0396 62.0433 20.9063 62.1 20.753 62.1ZM25.1858 62.1C24.6658 62.1 24.2058 62 23.8058 61.8C23.4124 61.6 23.1058 61.32 22.8858 60.96C22.6724 60.6 22.5658 60.19 22.5658 59.73C22.5658 59.2767 22.6924 58.88 22.9458 58.54C23.1991 58.1933 23.5524 57.9767 24.0058 57.89V57.77C23.6524 57.6967 23.3758 57.5233 23.1758 57.25C22.9758 56.97 22.8758 56.66 22.8758 56.32C22.8758 55.92 22.9724 55.5667 23.1658 55.26C23.3658 54.9467 23.6424 54.7033 23.9958 54.53C24.3491 54.3567 24.7458 54.27 25.1858 54.27C25.6258 54.27 26.0224 54.3567 26.3758 54.53C26.7291 54.7033 27.0024 54.9467 27.1958 55.26C27.3958 55.5667 27.4958 55.92 27.4958 56.32C27.4958 56.66 27.3924 56.97 27.1858 57.25C26.9858 57.53 26.7124 57.7033 26.3658 57.77V57.89C26.8191 57.9767 27.1724 58.1933 27.4258 58.54C27.6791 58.88 27.8058 59.2767 27.8058 59.73C27.8058 60.19 27.6958 60.6 27.4758 60.96C27.2624 61.32 26.9558 61.6 26.5558 61.8C26.1624 62 25.7058 62.1 25.1858 62.1ZM25.1858 57.52C25.6258 57.52 25.9658 57.4167 26.2058 57.21C26.4524 56.9967 26.5758 56.7033 26.5758 56.33C26.5758 55.9633 26.4491 55.6667 26.1958 55.44C25.9424 55.2133 25.6058 55.1 25.1858 55.1C24.7658 55.1 24.4291 55.2133 24.1758 55.44C23.9224 55.6667 23.7958 55.9633 23.7958 56.33C23.7958 56.7033 23.9158 56.9967 24.1558 57.21C24.4024 57.4167 24.7458 57.52 25.1858 57.52ZM25.1858 61.27C25.6858 61.27 26.0924 61.1367 26.4058 60.87C26.7258 60.5967 26.8858 60.2167 26.8858 59.73C26.8858 59.2767 26.7324 58.9133 26.4258 58.64C26.1191 58.36 25.7058 58.22 25.1858 58.22C24.6658 58.22 24.2524 58.36 23.9458 58.64C23.6391 58.9133 23.4858 59.2767 23.4858 59.73C23.4858 60.2167 23.6424 60.5967 23.9558 60.87C24.2758 61.1367 24.6858 61.27 25.1858 61.27Z" fill="white"/>
</svg>
