<svg width="24" height="20" viewBox="0 0 24 20" fill="none" xmlns="http://www.w3.org/2000/svg">
<path d="M23.9543 2.32425C23.0715 2.71125 22.1265 2.9775 21.1305 3.09825C22.1468 2.4885 22.9237 1.524 23.2943 0.375C22.341 0.93 21.2865 1.332 20.1653 1.55925C19.2713 0.60225 17.9932 0 16.575 0C13.8563 0 11.6528 2.20275 11.6528 4.91775C11.6528 5.3085 11.7 5.6835 11.7817 6.039C7.692 5.84775 4.0665 3.88275 1.64175 0.91425C1.21575 1.63725 0.9735 2.47725 0.9735 3.3915C0.9735 5.10225 1.84425 6.60225 3.1605 7.48425C2.35575 7.461 1.59825 7.23825 0.9345 6.8715V6.93075C0.9345 9.3165 2.6295 11.3055 4.8795 11.7585C4.46925 11.8673 4.03125 11.9303 3.5865 11.9303C3.27075 11.9303 2.96925 11.8995 2.6685 11.844C3.3015 13.797 5.1135 15.219 7.2735 15.2618C5.59425 16.578 3.46575 17.3625 1.17225 17.3625C0.7815 17.3625 0.3915 17.3438 0 17.2965C2.18775 18.6915 4.77 19.5075 7.55925 19.5075C16.6095 19.5075 21.555 12.0112 21.555 5.51925C21.555 5.31225 21.555 5.1015 21.5392 4.89C22.5045 4.20225 23.34 3.33075 24 2.343L23.9543 2.32425Z" fill="white"/>
</svg>
