<svg width="24" height="24" fill="none" xmlns="http://www.w3.org/2000/svg"><path d="M12 0C8.738 0 8.331.016 7.055.07 5.773.133 4.905.332 4.14.629c-.79.309-1.462.719-2.126 1.386A5.818 5.818 0 0 0 .63 4.141c-.297.765-.496 1.632-.56 2.914C.013 8.332 0 8.738 0 12c0 3.262.016 3.669.07 4.945.063 1.279.262 2.15.559 2.915.309.789.719 1.46 1.386 2.125a5.818 5.818 0 0 0 2.126 1.386c.765.294 1.635.496 2.914.56C8.332 23.987 8.738 24 12 24c3.262 0 3.669-.016 4.945-.07 1.279-.063 2.15-.266 2.915-.559a5.885 5.885 0 0 0 2.125-1.386 5.788 5.788 0 0 0 1.386-2.125c.294-.766.496-1.636.56-2.915.057-1.277.069-1.683.069-4.945 0-3.262-.016-3.669-.07-4.945-.063-1.279-.266-2.154-.559-2.914a5.885 5.885 0 0 0-1.386-2.126A5.788 5.788 0 0 0 19.86.63c-.766-.297-1.636-.496-2.915-.56C15.668.013 15.262 0 12 0Zm0 2.16c3.204 0 3.586.016 4.852.07 1.168.055 1.804.25 2.227.415.563.218.957.476 1.383.898a3.7 3.7 0 0 1 .894 1.38c.165.421.36 1.058.415 2.225.054 1.267.07 1.65.07 4.853s-.016 3.586-.075 4.852c-.063 1.168-.258 1.804-.422 2.226-.227.564-.48.957-.9 1.384a3.787 3.787 0 0 1-1.383.894c-.417.165-1.062.36-2.234.415-1.273.054-1.648.07-4.86.07-3.212 0-3.586-.016-4.86-.075-1.169-.063-1.813-.258-2.235-.422-.57-.228-.961-.481-1.38-.9a3.603 3.603 0 0 1-.897-1.383c-.168-.417-.36-1.062-.423-2.234-.042-1.258-.063-1.648-.063-4.845 0-3.196.02-3.586.063-4.86.063-1.173.255-1.816.423-2.235.207-.57.476-.96.897-1.383.418-.418.81-.688 1.38-.9.422-.163 1.05-.358 2.223-.417 1.273-.046 1.648-.062 4.856-.062L12 2.16Zm0 3.681a6.158 6.158 0 0 0-6.16 6.16A6.158 6.158 0 0 0 12 18.163a6.158 6.158 0 0 0 6.16-6.16A6.158 6.158 0 0 0 12 5.84Zm0 10.16c-2.211 0-4-1.788-4-4 0-2.21 1.789-4 4-4 2.211 0 4 1.79 4 4 0 2.212-1.789 4-4 4Zm7.849-10.406a1.443 1.443 0 0 1-2.883 0 1.442 1.442 0 0 1 2.883 0Z" fill="#fff"/></svg>